<svg width="124" height="124" viewBox="0 0 124 124" fill="none" xmlns="http://www.w3.org/2000/svg">
<rect width="124" height="124" rx="16" fill="#090A15"/>
<circle cx="62" cy="62" r="62" fill="#090A15"/>
<path fill-rule="evenodd" clip-rule="evenodd" d="M29.7607 72.7987C28.9587 74.1071 28.9711 75.7578 29.7927 77.0539L44.6642 100.513C45.6294 102.036 47.4899 102.73 49.2165 102.212L92.1322 89.3373C94.4742 88.6347 95.6525 86.0221 94.6288 83.8016L67.0406 23.9563C65.6952 21.0378 61.6393 20.7983 59.9597 23.5381L29.7607 72.7987ZM66.3076 37.6376C65.7213 36.2808 63.7357 36.4897 63.4446 37.9389L52.8233 90.8243C52.5993 91.9395 53.6434 92.8917 54.7333 92.5664L84.3845 83.7153C85.25 83.4569 85.6958 82.501 85.3375 81.6719L66.3076 37.6376Z" fill="white"/>
</svg>
